<?xml version="1.0" encoding="UTF-8"?>
<svg width="40px" height="40px" viewBox="0 0 40 40" version="1.1" xmlns="http://www.w3.org/2000/svg" xmlns:xlink="http://www.w3.org/1999/xlink">
    <title>Group</title>
    <g id="コンタクト" stroke="none" stroke-width="1" fill="none" fill-rule="evenodd">
        <g id="Artboard" transform="translate(-728.000000, -411.000000)" fill="#777777" fill-rule="nonzero">
            <g id="Group" transform="translate(728.000000, 411.000000)">
                <path d="M2.61682243,10.8411222 L11.6822428,3.08411279 L9.06542032,0 L0,7.7570094 L2.61682243,10.8411222 Z M37.3831776,10.8411222 L40,7.7570094 L30.841121,0.0934586594 L28.2242995,3.1775705 L37.3831776,10.8411222 Z M20.0000005,40 C24.9844238,40 29.2367599,38.2554514 32.7570097,34.7663553 C36.2772585,31.2772581 38.0373834,27.071651 38.0373834,22.1495329 C38.0373834,17.2274148 36.2772585,13.0218067 32.7570097,9.53271053 C29.2367599,6.04361436 24.9844238,4.2990658 20.0000005,4.2990658 C15.0155762,4.2990658 10.7476638,6.04361436 7.19626144,9.53271053 C3.70716519,13.0218067 1.96261658,17.2274148 1.96261658,22.1495329 C1.96261658,27.071651 3.72274147,31.2772581 7.2429903,34.7663553 C10.7632401,38.2554514 15.0155762,40 20.0000005,40 Z M20.0000005,36.074766 C16.1370715,36.074766 12.8348906,34.7040492 10.0934579,31.9626165 C7.35202524,29.2211839 5.98130841,25.9501557 5.98130841,22.1495329 C5.98130841,18.3489101 7.35202524,15.0778819 10.0934579,12.3364493 C12.8348906,9.59501567 16.1370715,8.22429887 20.0000005,8.22429887 C23.8629285,8.22429887 27.1651094,9.59501567 29.9065421,12.3364493 C32.6479748,15.0778819 34.0186916,18.3489101 34.0186916,22.1495329 C34.0186916,26.0124608 32.6479748,29.2990653 29.9065421,32.0093454 C27.1651094,34.7196255 23.8629285,36.074766 20.0000005,36.074766 Z M27.476636,29.8130836 L28.9719631,27.2897199 L21.0280371,22.6168224 L21.0280371,12.2429906 L18.0373829,12.2429906 L18.0373829,24.1121494 L27.476636,29.8130836 Z" id="Shape"></path>
            </g>
        </g>
    </g>
</svg>