<?xml version="1.0" encoding="UTF-8"?>
<svg width="30px" height="31px" viewBox="0 0 30 31" version="1.1" xmlns="http://www.w3.org/2000/svg" xmlns:xlink="http://www.w3.org/1999/xlink">
    <title>Group 6</title>
    <g id="プロフィール" stroke="none" stroke-width="1" fill="none" fill-rule="evenodd">
        <g id="Profile" transform="translate(-469.000000, -1622.000000)">
            <g id="profile" transform="translate(0.000000, 1517.000000)">
                <g id="Stacked-Group" transform="translate(131.000000, 57.000000)">
                    <g transform="translate(0.000000, 45.000000)" id="Group-5-Copy">
                        <g transform="translate(338.000000, 0.000000)">
                            <g id="Group-6" transform="translate(0.000000, 3.000000)">
                                <g id="radix-icons:reload">
                                    <rect id="ViewBox" x="0" y="0" width="30" height="31"></rect>
                                    <path d="M2.28136882,15.5 C2.28136882,8.89210526 7.32319392,2.33082707 15.1711027,2.33082707 C21.5087452,2.33082707 24.643346,7.12300752 25.9779468,9.67293233 L23.1263202,8.52478418 C22.4963376,8.52478418 21.9856358,9.04655759 21.9856358,9.69019772 C21.9856358,10.3338378 22.4963376,10.8556113 23.1263202,10.8556113 L28.8593156,12.0037594 C29.4892982,12.0037594 30,11.481986 30,10.8383459 L28.8888889,4.99401281 C28.8888889,4.35037269 28.3781871,3.82859928 27.7482045,3.82859928 C27.1182219,3.82859928 26.6075201,4.35037269 26.6075201,4.99401281 L27.7186312,8.07165414 C26.1125475,5.17676692 22.3939163,0 15.1711027,0 C5.90190114,0 0,7.77330827 0,15.5 C0,23.2266917 5.90190114,31 15.1711027,31 C19.6060837,31 23.2973384,29.2052632 25.9254753,26.4735338 C27.3200547,25.0202952 28.4263083,23.3051538 29.18327,21.4226316 C29.3381303,21.0374966 29.28012,20.5972091 29.0310909,20.2676211 C28.7820617,19.9380331 28.3798473,19.7692169 27.9759578,19.8247639 C27.5720683,19.880311 27.2278642,20.1517823 27.0730038,20.5369173 C26.4283453,22.1404121 25.486347,23.6014545 24.2988593,24.8396241 C22.0836502,27.1471429 18.9695817,28.6691729 15.1711027,28.6691729 C7.32319392,28.6691729 2.28136882,22.1078947 2.28136882,15.5 Z" id="Path" fill="#000000"></path>
                                </g>
                                <text id="age" font-family="Rockwell-Bold, Rockwell" font-size="10" font-weight="bold" letter-spacing="0.025" fill="#000000">
                                    <tspan x="6.77419355" y="18">age</tspan>
                                </text>
                            </g>
                        </g>
                    </g>
                </g>
            </g>
        </g>
    </g>
</svg>