<?xml version="1.0" encoding="UTF-8"?>
<svg width="24px" height="33px" viewBox="0 0 24 33" version="1.1" xmlns="http://www.w3.org/2000/svg" xmlns:xlink="http://www.w3.org/1999/xlink">
    <title>clarity:map-marker-line</title>
    <g id="プロフィール" stroke="none" stroke-width="1" fill="none" fill-rule="evenodd">
        <g id="Profile" transform="translate(-131.000000, -1621.000000)" fill="#000000" fill-rule="nonzero">
            <g id="profile" transform="translate(0.000000, 1517.000000)">
                <g id="Stacked-Group" transform="translate(131.000000, 57.000000)">
                    <g transform="translate(0.000000, 45.000000)" id="Group-5">
                        <g id="clarity:map-marker-line" transform="translate(0.000000, 2.000000)">
                            <path d="M11.9949088,4.78231501 C8.77258384,4.78231501 6.16037336,7.38159277 6.16037336,10.5879644 C6.16037336,13.794336 8.77258384,16.3936138 11.9949088,16.3936138 C15.2172337,16.3936138 17.8294442,13.794336 17.8294442,10.5879644 C17.8294442,9.04821044 17.214736,7.5715208 16.1205483,6.48275035 C15.0263607,5.39397989 13.5423238,4.78231501 11.9949088,4.78231501 L11.9949088,4.78231501 Z M11.9949088,14.3672091 C9.89730459,14.3672091 8.19686042,12.6751836 8.19686042,10.5879644 C8.19686042,8.50074517 9.89730459,6.80871968 11.9949088,6.80871968 C14.092513,6.80871968 15.7929571,8.50074517 15.7929571,10.5879644 C15.7873442,12.6712257 14.0885429,14.3570846 11.9949088,14.3570771 L11.9949088,14.3672091 Z" id="Shape"></path>
                            <path d="M11.9949088,0 C5.39243846,0.00548727366 0.0335980666,5.31516383 0,11.8848634 C0,16.6165183 2.66779805,20.5781394 4.62282563,23.465766 L4.97921086,23.9926313 C6.9243403,26.7978096 9.01101889,29.5031486 11.2312261,32.0982499 L12.0050912,33 L12.7789563,32.0982499 C14.9988795,29.50292 17.0855468,26.7975956 19.0309716,23.9926313 L19.3873568,23.455634 C21.332202,20.5680074 24,16.6165183 24,11.8848634 C23.9663794,5.3112132 18.6013517,0 11.9949088,0 Z M17.6868901,22.2904513 L17.3203224,22.8274486 C15.5689436,25.4415106 13.2473483,28.3696653 11.9949088,29.8185447 C10.7933814,28.3696653 8.42087399,25.4415106 6.66949512,22.8274486 L6.31310989,22.2904513 C4.51081884,19.6155972 2.03648706,15.9579368 2.03648706,11.8443353 C2.03648706,8.30414805 3.93455143,5.03288011 7.01569786,3.26278648 C10.0968443,1.49269284 13.8929733,1.49269284 16.9741197,3.26278648 C20.0552661,5.03288011 21.9533305,8.30414805 21.9533305,11.8443353 C21.9533305,15.9984648 19.4891812,19.6561253 17.6868901,22.2904513 L17.6868901,22.2904513 Z" id="Shape"></path>
                        </g>
                    </g>
                </g>
            </g>
        </g>
    </g>
</svg>